<?xml version="1.0" encoding="UTF-8"?>
<svg id="Layer_1" data-name="Layer 1" xmlns="http://www.w3.org/2000/svg" viewBox="0 0 639.81 355.25">
  <defs>
    <style>
      .cls-1 {
        fill: #fff;
      }

      .cls-2 {
        fill: #48181a;
      }

      .cls-3 {
        fill: #eec764;
      }
    </style>
  </defs>
  <g>
    <path class="cls-3" d="M162.68,111.44c4.39,0,8.3.74,11.69,1.97C191.11,53.49,243.02,8.23,306.51,1.21c1.09-.16,1.09-1.18,0-1.21-69.73,3.26-128.35,49.05-150.48,112.06,2.26-.43,4.49-.62,6.64-.62"/>
    <path class="cls-3" d="M180.47,147.81h0c-.88-.58-1.91-1.24-3.21-2.05-.44-.26-.9-.55-1.37-.84.13,0,.26.01.38.01,7.44,0,13.46-6.02,13.47-13.44,0-.11-.01-.19-.01-.31,0-.1.01-.18.01-.29,0-1.79-.41-3.52-1.03-5.04-.82-1.92-1.92-3.55-3.35-5.17-1.42-1.59-3.2-3.13-5.34-4.49C196.34,51.7,254.79,3.98,324.35,4.04c23.75.02,46.21,5.62,66.11,15.55,1.32.69,1.15,1.83,0,1.59-15.78-5.39-34.02-8.35-54.8-8.38-73.52-.09-133.49,58.01-136.48,130.79h-4.9c-2.31,0-4.57.94-6.19,2.56-1.49,1.49-2.41,3.49-2.54,5.58-1.72-1.52-3.45-2.8-5.08-3.92"/>
    <path class="cls-3" d="M395.58,36.24c-.3.36-.58.76-.82,1.23-14.25-6.81-29.95-10.6-46.49-10.62-1.68,0-3.35.04-5.01.14-58.73,2.68-106.27,52.94-111.47,116.64h-8.75c-2.29-.01-4.55.94-6.18,2.56-.64.64-1.18,1.37-1.59,2.17-.92-1.12-2.04-2.06-3.27-2.77-2.17-1.3-4.55-1.85-6.79-1.96,2.79-68.14,59.71-122.5,129.46-122.44,22.01.02,42.74,5.46,60.89,15.05"/>
    <path class="cls-3" d="M456.82,105.57c-.04-.1-.06-.22-.1-.32.04.11.06.23.1.32"/>
    <path class="cls-3" d="M418.7,70.27c-3.86-8.82,2.03-16.4-8.69-23.5-.78-.52-1.55-.33-1.83.65-2.98,10.28,6.05,17.19,9.83,23.08.43.67,1.01.48.69-.23"/>
    <path class="cls-3" d="M434.7,48.97c.78.17.84-.44.1-.72-6.56-2.47-15.21-9.84-24.65-4.76-.88.48-.91,1.27-.24,1.92,9.21,8.98,15.38,1.64,24.8,3.56"/>
    <path class="cls-3" d="M430.38,78.91c-3.56-8.94,2.62-16.3-7.86-23.77-.77-.54-1.54-.37-1.86.57-3.34,10.18,5.43,17.39,9.02,23.42.41.67,1,.52.7-.23"/>
    <path class="cls-3" d="M446.7,61.45c.73.3.89-.28.23-.7-5.99-3.66-13.11-12.51-23.32-9.29-.95.3-1.13,1.08-.6,1.85,7.34,10.56,14.79,4.47,23.7,8.13"/>
    <path class="cls-3" d="M440.74,90.68c-2.79-9.22,3.97-16.05-5.83-24.37-.73-.6-1.53-.49-1.9.42-4.18,9.88,3.95,17.8,7.03,24.11.34.68.92.6.7-.16"/>
    <path class="cls-3" d="M458.57,72.96c.72.32.9-.25.23-.68-5.91-3.77-12.84-12.76-23.13-9.73-.95.29-1.15,1.06-.63,1.83,7.14,10.71,14.71,4.77,23.53,8.59"/>
    <path class="cls-3" d="M450.63,101.79c-2.2-9.37,4.97-15.76-4.28-24.68-.68-.65-1.49-.59-1.93.3-4.79,9.59,2.83,18,5.49,24.49.3.73.89.65.72-.11"/>
    <path class="cls-3" d="M469.13,87.21c.67.41.93-.13.33-.65-5.32-4.56-10.91-14.44-21.53-12.89-.99.13-1.29.88-.89,1.72,5.58,11.6,13.88,6.79,22.09,11.82"/>
    <path class="cls-3" d="M457.74,114.55c-.92-9.6,7.07-14.96-.93-25.04-.58-.75-1.36-.79-1.92.03-6.05,8.84.37,18.21,2.13,25,.19.76.8.76.72,0"/>
    <path class="cls-3" d="M476.67,104.86c.53.57.93.11.47-.54-3.98-5.77-6.89-16.74-17.55-17.93-1-.11-1.48.52-1.3,1.44,2.45,12.62,11.7,10.08,18.38,17.03"/>
    <path class="cls-3" d="M470.26,126.84c.13.77.71.6.68-.2-.2-7.02,3.32-17.8-4.96-24.6-.77-.64-1.51-.36-1.87.5-4.82,11.93,4.33,14.83,6.15,24.3"/>
    <path class="cls-3" d="M423.27,37.62c-8.89-.14-14.34-7.08-23.34-4.06-1.14.38-6.43,1.8-6.2,8.75.26,8.43,8.51,11.49,11.19,19.53.25.77.82.52.69-.31-.97-5.85.29-14.65-4.35-20.89-.23-.37-.12-.46.26-.31,7.04,2.81,15.69-1.11,21.68-1.96.82-.12.89-.76.07-.76"/>
    <path class="cls-3" d="M164.81,127.26c3.94,0,8.3,1.5,11.31,6.95,2.22.68,6.08-1.24,4.52-4.98-1.27-3.08-6.95-9.04-17.98-9.05-10.2,0-24.61,6.21-24.63,23.07,0,7.99,5.11,13.76,10.16,17.67,2.86,2.21,13.27,8.76,15.08,10.13,3.3,2.5,7.25,5.8,7.25,11.25,0,6.05-4.56,11.13-13.33,10.52-5.47-.4-10.32-3.42-13.29-7.22-3.42-.54-6.45,3.24-4.1,6.81,3.3,5.09,11.26,8.19,19.3,8.2,14.87.01,28.65-9.39,28.67-25.78,0-9.6-6.26-15.72-12.21-19.78-2.45-1.66-11.76-7.18-14.82-9.48-3.89-2.93-5.74-5.7-5.73-9.09,0-5.09,4.9-9.23,9.81-9.23"/>
    <path class="cls-3" d="M371.82,190.04c-2.6,2.87-6.82,5.47-11.9,5.47-9.62,0-13.19-7.85-13.17-20.32l31.21.03c-.42-15.17-8.72-24.18-23.62-24.2-13.07-.01-23.15,9.64-23.79,23.85-.69,15.59,8.99,26.51,24.12,26.53,10.76.01,17.5-4.77,20.04-9.23,1.19-2.14-1.15-4.05-2.89-2.13ZM355.02,155.74c3.92,0,7.75,3.31,7.74,14.34l-15.91-.02c0-8.4,3.07-14.33,8.17-14.33Z"/>
    <path class="cls-3" d="M466.78,155.78c-1.96-2.08-7.96-4.44-15.13-4.45-11.21-.01-20.07,5.65-20.08,15.28,0,5.99,3.64,9.4,7.65,11.81,2.83,1.7,9.9,4.53,12.39,5.87,2.22,1.2,4.96,2.95,4.96,5.75,0,4.72-5.16,6.63-11.66,6.62-4.47,0-6.98-1.06-9.79-2.26-2.22-.93-3.62,1.61-2.07,2.91,2.58,2.18,10.04,4.06,15.19,4.06,12.8.01,22.46-6.55,22.47-17.12,0-4.99-2.69-9.07-7.91-11.94-3.84-2.13-9.81-4.18-12.5-5.56-2.37-1.19-4.56-2.59-4.56-5.22,0-3.6,4.15-5.56,10.18-5.36,3.33.11,6.88,1.34,8.85,2.27,1.98.93,3.27-1.32,2-2.65"/>
    <path class="cls-3" d="M322.85,134.4c2.28,0,4.48,1.66,5.08,5.29,3.28.77,7.64-2.76,4.21-6.98-1.3-1.61-5.11-3.96-10.41-3.96-6.1,0-11.34,2.93-14.2,7.12-1.94,2.85-2.51,6.4-2.51,9.54v3.93c0,2.34-.55,3.12-2.57,3.12-2.22,0-3.33,1.37-3.33,3.36v3.46s5.88,0,5.88,0l-.04,40.68h10.64c3.3.01,4.69-2.24,4.69-4.9l.03-33.12c.07-1.97.68-2.64,2.54-2.64h3.53c2.97,0,4.45-2,4.45-4.2v-2.63s-10.51,0-10.51,0l-.05-15.03c0-1.91.98-3.06,2.55-3.04"/>
    <path class="cls-3" d="M209.57,185.22l.03-28.63c0-2.37-1.87-4.23-4.85-4.23h-10.48s-.03,32.85-.03,32.85c-.01,10.85,5.99,16.04,14.52,16.05,8.16,0,12.98-3.47,15.08-6.34,2.45,6.45,15.84,8.89,19.09-1.32.36-1.09.22-1.71-.95-1.03-1.73.94-3.64-.44-3.65-3.98l.03-31.97c0-2.19-1.67-4.23-4.85-4.23h-10.48s-.04,38.68-.04,38.68c-1.56,2.05-5.42,3.32-7.37,3.32-4.3,0-6.08-3.78-6.07-9.16"/>
    <path class="cls-3" d="M428.28,192.74c-1.72.95-3.62-.42-3.62-3.98l.02-17.52c.01-13.65-10.7-20.17-22.1-20.18-8.48,0-14.56,3.17-17.46,5.76-2.09,1.84-.69,3.89,1.51,2.49,3.37-2.15,7.37-3.95,11.75-3.94,7.77,0,10.98,4.18,10.97,11.92v1.89c-14.19,2.05-29.71,5.9-29.72,18.51,0,8.76,7.23,13.88,16.33,13.89,6.12,0,9.72-1.43,14.34-6.11,2.89,6.11,15.77,8.28,18.95-1.69.35-1.09.21-1.71-.96-1.03ZM409.33,181.59c0,7-2.26,13.61-7.86,13.6-3.77,0-5.61-4.76-5.6-8.48,0-8.05,6.82-12.03,13.47-12.77v7.64Z"/>
    <path class="cls-3" d="M287.88,200.58c5.94,0,8.59-3.96,9.55-6.92.34-1.09.21-1.71-.96-1.03-1.72.95-3.65-.42-3.66-3.98l.02-22.7c.01-12.12-6.53-14.99-14.98-15-5.48,0-10.5,1.73-13.79,5.43-.03-2.03-1.86-3.97-4.84-3.97h-10.49s-.05,47.5-.05,47.5h15.33s.04-38.54.04-38.54c3.43-4.01,13.46-6.8,13.45,4.21l-.02,25.54c0,5.97,5.09,9.46,10.4,9.47"/>
    <path class="cls-3" d="M493.27,152.63v-14.84s-4.23,1.57-10.73,1.56c-3.09,0-4.59,2.18-4.59,4.5v7.51c-.33.86-1.01,1.21-2.33,1.21-2.22,0-3.33,1.37-3.33,3.36v3.51s5.64,0,5.64,0l-.03,31.85c0,5.97,5.1,9.46,10.4,9.47,5.94,0,8.61-3.96,9.55-6.92.36-1.09.21-1.71-.96-1.03-1.72.95-3.64-.42-3.65-3.98l.03-26.72c.07-1.97.69-2.63,2.55-2.64h1.78c2.97,0,4.45-2,4.45-4.2v-2.63s-8.77,0-8.77,0Z"/>
  </g>
  <g>
    <path class="cls-2" d="M482.66,277.89c-.46,0-.92-.07-1.38-.21-2.05-.62-3.37-2.51-3.36-4.54,0-.46.07-.92.21-1.37,2.91-9.56-1.83-19.84-10.56-22.92-1.95-.69-3.17-2.52-3.16-4.47,0-.52.09-1.05.27-1.58.87-2.47,3.58-3.76,6.05-2.89,3.91,1.38,8.13,1.1,11.86-.78,4.17-2.11,7.28-5.91,8.73-10.7.76-2.5,3.41-3.92,5.92-3.15,2.05.62,3.36,2.51,3.36,4.54,0,.46-.07.92-.21,1.37-2.91,9.56,1.83,19.84,10.56,22.92,1.95.69,3.17,2.52,3.16,4.47,0,.52-.09,1.05-.27,1.58-.87,2.47-3.58,3.76-6.05,2.89-3.91-1.38-8.13-1.1-11.86.78-4.17,2.11-7.28,5.91-8.73,10.69-.62,2.05-2.5,3.36-4.54,3.36ZM482.99,249.15c1.95,2.68,3.43,5.73,4.35,8.98,1.34-1.06,2.78-1.99,4.31-2.76,1.26-.64,2.55-1.16,3.87-1.57-1.95-2.68-3.43-5.73-4.35-8.98-1.34,1.06-2.79,1.99-4.31,2.76-1.26.64-2.56,1.16-3.87,1.57Z"/>
    <path class="cls-2" d="M26.5,354.72c-5.27,0-11-.83-15.33-2.22C1.93,349.55,0,344.57,0,340.9c0-5.78,6.26-27.8,11.61-44.91,6.5-20.77,12.89-38.46,17.62-48.86l-12.44-6.36c-4.84-2.66-7.01-8.32-5.16-13.47,2.13-5.92,7.78-9.9,14.07-9.89h.19s27.86,1.17,27.86,1.17c11.43.01,21.71.38,29.22.65,4.8.17,8.6.31,11.25.31,8.49,0,14.85-2.41,18.66-3.86,2.22-.84,3.68-1.4,5.22-1.4,3.73,0,6.65,3,6.65,6.82,0,9.05-6.7,20.12-8.75,23.3-3.47,5.39-10.29,14.42-16.94,14.41-4.3,0-8.45-3.08-13.26-6.64-5.09-3.77-10.85-8.04-16.08-8.09-.2.16-.8.75-1.75,2.62-3.5,7.44-6.09,15.03-8.83,23.07-.22.65-.44,1.3-.67,1.96,1.87-.6,3.51-1.07,4.53-1.36,5.29-1.53,15.27-4.08,22.64-4.08,6.25,0,9.09,4.03,9.09,7.77,0,2.78-1.82,5.72-7.44,14.11-2.34,3.49-4.76,7.11-6.43,10.07l-.04.08c-1.28,2.18-3.04,5.16-7.23,5.16-1.33,0-2.48-.45-4.76-1.33-3.92-1.53-10.85-4.22-19.48-4.8-3.05,8.47-11.22,31.97-13.97,47.93-.98,6.27-3.97,9.44-8.87,9.44ZM21.3,232.44l20.61,10.53-2.19,4.23c-10.54,20.33-30.23,86.53-30.23,93.71.45,1.45,7.07,4.16,16.24,4.32.08-.32.18-.78.28-1.44v-.08c2.16-12.49,7.28-28.83,11.08-40.04l-.7.84,9.61-25.92c1.48-3.98,2.85-8,4.17-11.88,2.71-7.95,5.52-16.17,9.26-24.11l.06-.13c1.1-2.15,4.01-7.87,10.16-7.86,8.38,0,15.82,5.52,21.8,9.95,2.43,1.8,6.07,4.5,7.5,4.76,3.55-1.2,13.29-14.45,15.74-24.18-4.36,1.61-11.41,3.9-20.48,3.89-2.82,0-6.69-.14-11.59-.32-7.88-.28-17.68-.64-28.98-.65h-.19s-27.85-1.17-27.85-1.17c-2.61.04-4.41,1.83-5.06,3.62-.25.7.07,1.52.76,1.92ZM50.23,287.91c9.98.72,17.95,3.82,22.03,5.4.13.05.27.1.41.16,1.85-3.25,4.34-6.97,6.75-10.57,1.5-2.24,3.36-5.02,4.6-7.07-10.02.57-26.99,6.03-30.29,7.87l-3.5,4.2ZM137.3,353.21c-11.37-.01-18.06-5.78-21.51-9.35-4.44,3.19-13.29,9.32-26.07,9.31-11.64-.01-19.15-8.52-19.13-21.67s5.97-27.07,16.35-37.89c10.98-11.45,25.07-17.74,39.67-17.73,7.46,0,14.91,2.14,20.98,6,5.92,3.76,9.44,8.43,9.44,12.49,0,2.18-1.13,4.32-3.18,8.21-3.89,7.39-10.39,19.76-10.41,35.19,0,2.77.31,3.84.61,4.87.27.91.6,2.03.6,3.59,0,4.05-3.1,6.99-7.35,6.99ZM137.31,343.73v4.74s0-4.74,0-4.74h0ZM126.6,285.35c-26.18-.02-46.51,24.79-46.53,46.14,0,4.55,1.25,12.17,9.66,12.18,10.06,0,16.83-4.86,20.87-7.77,2.29-1.65,3.8-2.73,5.89-2.73,2.36,0,3.72,1.48,5.03,2.92,2.17,2.36,6,6.53,12.98,7.45-.29-1.31-.54-3.11-.53-5.79.02-17.76,7.49-31.96,11.5-39.59.7-1.34,1.55-2.94,1.94-3.85-1.46-2.7-9.56-8.94-20.81-8.95ZM103.63,335.13c-4.56,0-7.86-3.42-7.86-8.13.01-13.49,15.15-38.55,29.44-38.54,3.4,0,6.82,2.23,6.82,7.19,0,4.03-5.28,14.89-9.02,21.31-10.6,18.18-17.2,18.17-19.38,18.17ZM105.25,327.02h0s0,0,0,0ZM121.16,299.44c-6.41,4.22-14.31,16.47-15.7,25.1,1.91-1.58,5.1-5.11,9.24-12.18,2.88-4.91,5.12-9.65,6.46-12.93Z"/>
    <path class="cls-2" d="M330.04,353.39c-11.37-.01-18.06-5.78-21.51-9.35-4.44,3.19-13.29,9.32-26.07,9.31-11.64-.01-19.15-8.52-19.13-21.67.01-13.26,5.97-27.07,16.35-37.89,10.98-11.45,25.07-17.74,39.67-17.73,7.46,0,14.91,2.14,20.98,6,5.92,3.76,9.44,8.43,9.44,12.49,0,2.18-1.13,4.32-3.18,8.21-3.89,7.39-10.39,19.76-10.41,35.19,0,2.77.31,3.84.61,4.87.27.91.6,2.03.59,3.59,0,4.05-3.1,6.99-7.35,6.99ZM330.05,343.91v4.74s0-4.74,0-4.74h0ZM319.34,285.54c-26.18-.02-46.51,24.79-46.53,46.14,0,4.55,1.25,12.17,9.66,12.18,10.06,0,16.83-4.86,20.87-7.77,2.29-1.65,3.8-2.73,5.89-2.73,2.36,0,3.72,1.48,5.03,2.92,2.17,2.36,6,6.53,12.98,7.45-.29-1.31-.54-3.11-.53-5.79.02-17.76,7.49-31.96,11.5-39.59.7-1.34,1.55-2.94,1.94-3.85-1.46-2.7-9.56-8.94-20.81-8.95ZM340.33,294.91h0ZM296.37,335.32c-4.56,0-7.86-3.42-7.86-8.13.01-13.49,15.15-38.55,29.44-38.54,3.4,0,6.82,2.23,6.82,7.19,0,4.03-5.28,14.89-9.02,21.31-10.6,18.18-17.2,18.17-19.38,18.17ZM297.99,327.21h0s0,0,0,0ZM313.91,299.62c-6.41,4.22-14.31,16.47-15.7,25.1,1.91-1.58,5.1-5.11,9.24-12.18,2.88-4.91,5.12-9.65,6.46-12.93Z"/>
    <path class="cls-2" d="M367.37,353.24c-11.13-.01-18.57-3.52-22.86-6.47-5.53-3.79-8.96-8.91-8.95-13.34,0-7.25,9.63-15.77,17.44-17.92-3.52-3.34-6.3-7.6-6.29-13.64.01-14.94,15.38-25.77,36.54-25.75,16.99.02,27.13,9.6,27.12,18.86,0,6.49-8.33,13.89-14.89,16.42,3.82,3.64,7.06,8.36,7.05,14.96,0,8.11-3.27,14.92-9.43,19.69-6.18,4.79-14.84,7.21-25.73,7.2ZM355.57,324.58c-3.91.83-10.36,6.46-10.52,8.88.15,1.78,6.45,10.29,22.34,10.3,16.3.02,25.65-6.33,25.66-17.41,0-5.06-3.8-8.23-9.61-12.48-4.93-3.61-10.51-7.69-10.51-14.42,0-5.06,3.76-8.87,8.74-8.87,5.43,0,9.68,4.34,11.43,11.62,3.02-1.51,7.4-5.43,7.78-7.31-.07-3.82-6.35-9.29-17.65-9.3-15.41-.01-27.04,6.98-27.05,16.28,0,4.52,3.46,7.26,9.17,11.23,5.34,3.72,11.99,8.34,11.98,16.6,0,4.66-3.69,8.31-8.4,8.3-5.97,0-11.45-5.58-13.38-13.44ZM366.19,325.87c.34.57.69,1.05,1.04,1.43-.27-.48-.61-.96-1.04-1.43ZM356.67,324.48h0ZM391.39,302.81v4.74s0-4.74,0-4.74Z"/>
    <path class="cls-2" d="M468.95,353.52c-11.16-.01-24.19-3.63-24.18-13.78,0-7.54,4.25-17.61,8.74-28.26,4.26-10.12,8.68-20.59,8.68-27.35,0-3.95,2.98-7.93,9.61-7.93,13.37.01,21.57,10.77,21.57,18.48,0,6.08-3.6,14.19-7.76,23.58-4.03,9.09-8.6,19.4-8.61,26.02,0,1.81-.16,3.92-1.32,5.8-.8,1.29-2.73,3.45-6.73,3.45ZM471.63,285.68c-.52,8.45-5.02,19.13-9.38,29.47-3.93,9.32-7.99,18.96-7.99,24.59,0,1.61,5.23,4,13.26,4.27.1-8.58,4.84-19.26,9.42-29.6,3.42-7.7,6.95-15.67,6.95-19.75,0-2.61-4.23-8.98-12.09-8.99-.06,0-.12,0-.17,0ZM423.62,353.48c-11.08-.01-24.01-3.63-24-13.78,0-5.02,3.1-13.21,7.82-25.13,1.47-3.73,3.3-8.35,4.42-11.66-3.55-1.47-4.21-4.32-4.2-6.24,0-3.47,3.49-12.07,6.61-15.19,2.01-1.96,4.28-2.74,6.24-3.05,3.64-9.67,7.15-19.23,7.15-22.71,0-3.86,2.98-7.74,9.61-7.74,9.68,0,21.58,10.2,21.57,18.48,0,1.82-.93,4.92-4.21,13.62.04,0,.09.02.13.03,3.66.91,4.94,3.59,4.92,5.79-.03,3.31-3.56,11.81-6.57,14.77-2.34,2.24-4.97,2.79-7.42,2.91-5.79,13.52-13.83,35.73-13.83,40.65,0,8.58-6.3,9.25-8.22,9.24ZM417.81,294.38h4.53s0,4.75,0,4.75c0,3.39-2.2,9.11-6.09,18.93-3.02,7.62-7.15,18.06-7.15,21.65,0,1.64,5.5,4.03,13.27,4.27.23-9.12,12.12-38.58,15.75-46.76l.94-3.11,5.06.02c1.4,0,2.21-.07,2.4-.26.63-.63,1.69-2.72,2.52-4.69h-.47s-7.4-.44-7.4-.44l2.33-6.06c1.63-4.24,5.4-14.01,5.86-16.36-.13-.69-1.15-2.8-3.99-5.16-2.7-2.25-5.88-3.7-8.09-3.7-.08,0-.15,0-.22,0-.6,5.35-3.69,13.76-8.42,26.33l-1.47,3.91h-3.28c-2.22,0-2.63.23-2.94.53-.83.83-2.26,3.82-3.1,6.14Z"/>
    <path class="cls-2" d="M508.37,355.25c-11.88-.01-25.75-3.63-25.74-13.79,0-7.15,7.14-28.79,18.9-63.57,7.1-21.02,15.94-47.18,15.94-51.6,0-3.82,3.01-7.93,9.61-7.93,13.24.01,23.31,12.33,23.3,18.48,0,4.37-3.53,13.84-9.33,28.91-.03.07-.05.14-.08.21,8.94-6.12,17.81-15.92,17.82-28.92,0-2.1-.18-3.4-.32-4.45-.1-.72-.19-1.4-.19-2.13,0-4.1,3.02-7.18,7.01-7.18,5.41,0,12.11,2.68,17.49,6.97,6.66,5.32,10.33,12.35,10.32,19.79,0,8.35-7.97,17.93-23.65,28.46-7.17,4.82-15.14,9.19-21.66,12.04,5.45,5.74,8.49,13.78,11.07,20.64,3.22,8.54,5.59,14.15,9.11,14.15,1.02,0,2.1-.4,3.14-.79,1.18-.44,2.39-.89,3.81-.89,3.53,0,6.3,2.75,6.3,6.25,0,6.88-12.22,23.71-28.21,23.7-9.58,0-16.6-4.26-20.87-12.64-3.36-6.61-4.51-14.85-5.53-22.13-.43-3.06-.93-6.68-1.64-9.66-5.4,15.5-8.54,28.89-8.55,36.84,0,1.81-.16,3.92-1.32,5.8-.8,1.29-2.73,3.45-6.73,3.45ZM526.84,227.85c-.88,7.1-6.93,25.24-16.33,53.07-8.19,24.25-18.39,54.44-18.4,60.55,0,1.21,5.71,3.99,14.83,4.27.08-10.67,4.57-28.35,12.34-48.6l1.67-4.34,4.37,1.58c7.84,2.84,9.22,12.7,10.68,23.14,2.25,16.06,4.64,26.59,17.01,26.6,6.7,0,12.53-5.05,15.84-9.33-.29.02-.59.03-.9.03-10.33,0-14.21-10.32-17.97-20.29-3.36-8.92-6.84-18.14-14.27-21.03l-16.25-6.32,17.21-2.78c3.84-.62,15.53-5.75,27.47-13.77,14.36-9.64,19.45-17.12,19.46-20.6,0-9.18-9.31-15.28-15.52-16.86.1,1.02.18,2.29.18,3.88-.03,29-30.94,42.07-34.47,43.47l-9.79,3.88,3.59-9.9c1.31-3.62,2.91-7.76,4.6-12.15,3.39-8.79,8.47-21.99,8.69-25.31-.62-2.03-6.03-9.18-13.82-9.19-.08,0-.16,0-.23,0ZM571.74,329.66h0s0,0,0,0Z"/>
    <path class="cls-2" d="M591.2,353.64c-8.11,0-13.77-6.06-13.76-14.71,0-4.39,1.95-9.35,5.21-13.27,1.96-2.36,4.26-4.18,6.7-5.35-2.21-1.35-3.55-3.76-3.55-6.75,0-2.22,1.5-7.55,7.43-27.55,6.13-20.65,15.39-51.87,15.4-59.63,0-3.95,2.98-7.93,9.61-7.93,7.93,0,21.58,9.89,21.57,19.98,0,4.69-4.87,17.5-16.52,46.34-4.31,10.67-8.38,20.75-9.24,23.86-1.2,4.4-3.8,7.8-7.33,9.55-1.42.72-3.16,1.35-4.92,1.86,4.73,2.17,7.71,6.95,7.71,13.07,0,9.69-7.84,20.52-18.3,20.51ZM595.74,328.27c-4.25,0-8.81,6.25-8.82,10.66,0,3.46,1.44,5.22,4.28,5.22,5.02,0,8.81-6.69,8.81-11.04,0-2.21-.74-4.84-4.28-4.85ZM618.05,227.94c-.74,9.65-7.57,33.28-15.73,60.77-2.63,8.85-5.54,18.66-6.62,23.04,2.02-.38,4.99-1.12,6.75-2.02,1.11-.55,1.97-1.83,2.45-3.6,1.01-3.65,4.8-13.03,9.59-24.9,5.85-14.48,15.64-38.71,15.83-42.83,0-4.02-8.68-10.46-12.09-10.46-.07,0-.13,0-.19,0Z"/>
    <path class="cls-2" d="M245.8,353.31c-11.08-.01-24.01-3.63-24-13.78,0-5.02,3.1-13.21,7.82-25.13,1.47-3.73,3.31-8.35,4.42-11.66-3.55-1.47-4.21-4.32-4.2-6.24,0-3.47,3.49-12.07,6.62-15.19,2.01-1.96,4.28-2.74,6.24-3.05,3.64-9.67,7.15-19.23,7.15-22.71,0-3.86,2.98-7.74,9.61-7.74,9.68,0,21.58,10.2,21.57,18.48,0,1.82-.93,4.93-4.23,13.68,4.13.99,5.09,3.55,5.07,5.77h0c-.03,3.31-3.56,11.81-6.57,14.78-2.35,2.24-4.98,2.79-7.43,2.91-5.79,13.52-13.83,35.74-13.83,40.65,0,8.58-6.3,9.25-8.22,9.24ZM239.98,294.21h4.53s0,4.75,0,4.75c0,3.39-2.2,9.11-6.09,18.93-3.02,7.62-7.15,18.06-7.15,21.65,0,1.64,5.5,4.03,13.27,4.27.23-9.12,12.12-38.58,15.74-46.76l.94-3.11,5.06.02c1.4,0,2.21-.08,2.4-.26.63-.63,1.69-2.71,2.52-4.68h-2.33s-.11-5.31-.11-5.31l-3.1-1.2c1.63-4.24,5.4-14.01,5.86-16.36-.13-.69-1.15-2.8-3.99-5.16-2.7-2.25-5.88-3.7-8.09-3.7-.08,0-.15,0-.22,0-.6,5.35-3.69,13.77-8.42,26.34l-1.47,3.9h-3.28c-2.22,0-2.63.23-2.94.53-.83.83-2.26,3.82-3.11,6.14ZM277.11,285.7h0s0,0,0,0Z"/>
    <path class="cls-2" d="M209.49,353.09c-6.47,0-23.67-.02-23.65-15.85,0-6.38,3.04-13.8,5.97-20.98,1.94-4.74,4.13-10.1,4.13-12.65,0-.48-.04-.83-.08-1.06-1.85.27-4.41,2.94-7.09,7.43-6.42,10.9-13.6,27.49-13.6,33.83,0,8.35-5.63,9.25-8.05,9.24-11.16-.01-24.19-3.63-24.18-13.78,0-7.46,3.85-17.5,7.93-28.12,3.89-10.15,7.92-20.65,7.93-27.49,0-3.95,2.98-7.93,9.61-7.93,6.27,0,14.13,1.99,18.74,10.55,5.48-4.43,15.02-10.52,27.45-10.51,10.49,0,18.11,6.91,18.1,16.41,0,7.5-3.68,16.15-7.22,24.51-2.95,6.96-6.01,14.16-6.01,18.89,0,3.18.33,4.33.63,5.33.26.88.58,1.97.58,3.5,0,4.32-3.84,8.68-11.17,8.68ZM196.17,293.05c4.27,0,9.25,2.78,9.25,10.58,0,4.41-2.24,9.89-4.84,16.23-2.47,6.03-5.26,12.87-5.27,17.4,0,2.83,0,6.35,14.18,6.36.63,0,1.11-.07,1.45-.15-.41-1.38-.98-3.48-.98-7.89,0-6.65,3.29-14.39,6.77-22.58,3.18-7.49,6.47-15.24,6.47-20.81,0-4.77-4.33-6.92-8.62-6.92-9.15,0-16.54,4.52-21.07,8.08.87-.2,1.75-.29,2.66-.29ZM168.23,285.21c-.47,8.38-4.56,19.02-8.51,29.33-3.59,9.35-7.29,19.02-7.3,24.73,0,1.61,5.23,4,13.26,4.27.17-9.8,9.21-28.7,14.93-38.41,1.46-2.45,2.93-4.51,4.41-6.2-3.52-.13-4.47-3.44-4.79-4.54-1.38-4.77-3.76-9.19-11.84-9.2-.06,0-.11,0-.16,0ZM196.29,302.54h0s0,0,0,0Z"/>
    <path class="cls-1" d="M495.85,229.8h0c-3.64,11.97,2.41,24.85,13.52,28.77h0c-11.11-3.92-23.07,2.6-26.71,14.57h0c3.64-11.97-2.41-24.85-13.52-28.77h0c11.11,3.92,23.07-2.6,26.71-14.57Z"/>
    <path class="cls-1" d="M152.29,294.36c0-4.32-10.75-13.73-25.69-13.74-28.31-.03-51.25,26.45-51.28,50.88,0,10.52,5.54,16.92,14.4,16.93,15.8.01,24.67-10.5,26.75-10.5,1.22,0,6.76,10.53,20.83,10.54,1.74,0,2.61-.94,2.61-2.25,0-2.25-1.21-2.82-1.21-8.46.02-23.12,13.58-39.83,13.59-43.4ZM103.63,330.39c-2.08,0-3.12-1.51-3.12-3.39.01-12.22,14.1-33.82,24.69-33.8,1.39,0,2.08.75,2.08,2.45,0,4.13-14.45,34.75-23.65,34.74ZM345.03,294.54c0-4.32-10.75-13.73-25.69-13.74-28.31-.03-51.25,26.45-51.28,50.88,0,10.52,5.54,16.92,14.4,16.93,15.8.01,24.67-10.5,26.75-10.5,1.22,0,6.76,10.53,20.83,10.54,1.74,0,2.61-.94,2.61-2.25,0-2.25-1.21-2.82-1.21-8.46.02-23.12,13.58-39.83,13.59-43.4ZM296.37,330.58c-2.08,0-3.12-1.51-3.12-3.39.01-12.22,14.1-33.81,24.69-33.8,1.39,0,2.08.75,2.08,2.45,0,4.13-14.45,34.75-23.65,34.74ZM588.35,250.04c.01-13.53-15.09-22-23.08-22.01-1.39,0-2.26.94-2.26,2.44,0,1.13.52,2.82.52,6.58-.02,21.99-21.05,34.94-31.47,39.06,4.7-12.96,13.58-34,13.58-39.26,0-3.38-7.63-13.73-18.57-13.74-3.13,0-4.86,1.31-4.87,3.19-.01,10.9-34.83,102.01-34.84,115.17,0,6.77,12.84,9.03,21,9.04,2.78,0,3.3-1.69,3.3-4.51.01-10.71,4.89-28.56,12.03-47.16,13.02,4.71.47,49.99,29.3,50.02,13.54.01,23.46-15.01,23.46-18.96,0-.75-.52-1.5-1.56-1.5-1.39,0-3.82,1.69-6.95,1.68-14.41-.01-12.12-33.84-30.52-41,10.42-1.68,50.9-24.01,50.92-39.04ZM595.74,323.53c-7.12,0-13.55,8.63-13.56,15.4,0,6.01,3.46,9.96,9.02,9.97,7.99,0,13.55-9.01,13.56-15.77,0-6.01-3.81-9.59-9.02-9.59ZM618.24,223.2c-3.3,0-4.86,1.31-4.87,3.19-.01,13.53-22.83,82.29-22.83,87.18,0,2.26,1.39,3.2,3.3,3.2,1.56,0,7.47-1.12,10.77-2.81,2.26-1.12,4-3.38,4.87-6.57,2.44-8.83,25.59-61.62,25.59-68.95,0-7.14-11.27-15.23-16.83-15.24ZM471.8,280.94c-3.3,0-4.86,1.31-4.87,3.19-.01,15.03-17.41,42.08-17.42,55.61,0,6.77,11.28,9.03,19.44,9.04,2.78,0,3.3-1.69,3.3-4.51.01-14.28,16.36-38.7,16.37-49.6,0-5.26-6.41-13.72-16.83-13.73ZM381.67,295.33c3.99,0,6.07,4.52,6.94,8.46.52,2.63.87,3.76,2.78,3.76,4.34,0,14.25-7.69,14.25-12.58,0-6.58-8.15-14.1-22.39-14.12-17.71-.02-31.79,8.43-31.8,21.02-.01,14.1,21.17,15.81,21.16,27.83,0,2.07-1.57,3.57-3.65,3.57-3.82,0-7.81-4.52-9.02-10.91-.35-1.5-1.04-2.63-3.47-2.63-5.9,0-16.16,8.25-16.16,13.7,0,5.07,9.36,15.04,27.08,15.06,20.32.02,30.4-9.18,30.41-22.15.01-14.28-20.13-17.31-20.12-26.89,0-2.44,1.57-4.13,4-4.13ZM277.11,285.7c0-1.21-2.13-1.39-4.23-1.41h-4s1.2-.07,1.2-.07c2.99-7.76,6.19-16.16,6.19-17.94,0-5.45-9.54-13.73-16.83-13.73-3.3,0-4.86,1.31-4.87,3,0,4.7-4.01,15.22-8.53,27.24-2.43,0-4.52.18-6.25,1.87-2.26,2.25-5.22,9.58-5.22,11.83,0,2.44,3.47,2.45,5.21,2.45,0,5.83-13.23,32.31-13.24,40.58,0,6.77,11.28,9.03,19.27,9.04,2.78,0,3.47-1.69,3.48-4.51,0-7.14,10.94-35.22,15.46-45.36h0s1.52,0,1.52,0c2.6.02,4.29-.22,5.7-1.57,2.19-2.15,5.14-9.42,5.16-11.43ZM454.93,285.87c0-1.21-2.13-1.39-4.23-1.41h-1.88s-.92-.07-.92-.07c2.99-7.76,6.19-16.16,6.19-17.94,0-5.45-9.54-13.73-16.83-13.73-3.3,0-4.86,1.31-4.87,3,0,4.7-4.01,15.22-8.53,27.24-2.43,0-4.52.18-6.25,1.87-2.26,2.25-5.22,9.58-5.22,11.83,0,2.44,3.47,2.45,5.21,2.45,0,5.83-13.23,32.31-13.24,40.58,0,6.77,11.28,9.03,19.27,9.04,2.78,0,3.47-1.69,3.48-4.51,0-7.14,10.94-35.22,15.46-45.36h0s1.52,0,1.52,0c2.6.02,4.29-.22,5.7-1.57,2.19-2.15,5.14-9.42,5.16-11.43ZM196.17,297.79c-2.6,0-6.43,1.31-11.47,9.76-6.09,10.33-14.27,28.18-14.27,36.26,0,2.82-.53,4.51-3.3,4.51-8.16,0-19.45-2.27-19.44-9.04.01-13.53,15.84-40.58,15.86-55.61,0-1.88,1.57-3.19,4.87-3.19,15.45.01,16.14,13.73,16.83,13.74.69,0,11.99-13.71,29.36-13.69,7.64,0,13.37,4.71,13.36,11.66-.01,12.78-13.23,31.75-13.24,43.4,0,6.2,1.21,6.58,1.21,8.83,0,1.69-1.91,3.94-6.43,3.94-10.77-.01-18.93-1.71-18.92-11.11,0-10.15,10.1-26.11,10.1-33.63,0-3.76-1.56-5.83-4.51-5.83ZM35.51,245.02c-10.65,20.54-30.76,87.22-30.77,95.89,0,6.79,13.75,9.06,21.77,9.07,2.79,0,3.66-2.07,4.19-5.46,3.5-20.36,15.38-52.02,15.38-52.02,14.81.01,25.78,6.25,27.52,6.25,1.39,0,1.92-.75,3.14-2.82,4.36-7.73,13.26-19.22,13.26-21.86,0-1.51-1.22-3.02-4.35-3.02-11.5-.01-33.63,7.32-35.2,9.2,4.54-12.25,7.86-24.12,13.27-35.62,1.92-3.77,3.66-5.27,5.93-5.27,11.85.01,22.98,14.73,29.43,14.73,6.62,0,20.92-21.66,20.94-32.97,0-1.13-.69-2.07-1.91-2.08-2.26,0-10.63,5.27-23.87,5.26-7.14,0-22.1-.95-40.57-.97l-27.96-1.17c-4.52,0-8.21,2.88-9.61,6.76-1.06,2.94.24,6.2,2.98,7.7l16.44,8.4Z"/>
  </g>
</svg>